<?xml version="1.0" encoding="UTF-8" standalone="no"?>
<svg
    xmlns="http://www.w3.org/2000/svg"
    width="2048"
    height="678"
    viewBox="0 0 2048 678">
  <title>Jot2D Logo</title>

  <!-- 背景は透明 -->
  <path
      d="M123,114 L113,124 L105,135 L97,154 L94,172 L94,473 L97,500 L105,519 L113,530 L123,540 L144,552 L170,558 L488,558 L504,556 L514,553 L536,541 L555,520 L561,508 L566,490 L566,165 L560,143 L549,125 L538,114 L528,107 L513,100 L496,96 L166,96 L155,98 L141,103 Z M140,135 L154,126 L168,122 L493,122 L505,125 L519,133 L533,149 L538,161 L540,173 L540,480 L537,496 L530,509 L518,521 L510,526 L493,531 L170,531 L153,527 L143,521 L127,503 L123,494 L121,484 L121,170 L123,160 L128,149 Z M1018,233 L996,237 L966,249 L953,257 L936,271 L921,289 L909,310 L901,333 L898,349 L899,389 L905,413 L916,436 L932,457 L953,476 L981,491 L1000,497 L1018,500 L1059,499 L1086,492 L1109,481 L1128,467 L1147,446 L1160,424 L1169,398 L1172,381 L1171,344 L1166,324 L1157,302 L1143,281 L1120,259 L1092,243 L1070,236 L1042,232 Z M1314,150 L1302,156 L1298,160 L1293,169 L1284,240 L1281,243 L1224,243 L1214,247 L1207,254 L1203,262 L1202,271 L1204,281 L1213,292 L1221,296 L1279,297 L1281,299 L1280,377 L1283,413 L1287,433 L1298,460 L1310,476 L1332,492 L1351,499 L1363,501 L1390,501 L1411,497 L1436,487 L1447,480 L1453,474 L1458,462 L1458,454 L1456,447 L1446,435 L1437,431 L1425,431 L1405,440 L1387,445 L1375,445 L1364,442 L1353,433 L1346,421 L1341,400 L1339,372 L1340,303 L1343,297 L1409,297 L1416,295 L1424,290 L1429,284 L1432,277 L1432,263 L1428,254 L1421,247 L1411,243 L1347,243 L1345,241 L1345,228 L1351,178 L1348,165 L1343,158 L1332,151 Z M825,124 L808,123 L800,126 L792,133 L787,142 L786,147 L791,243 L792,316 L789,359 L783,388 L776,408 L770,419 L757,433 L746,439 L736,442 L718,442 L708,440 L697,436 L676,424 L664,419 L651,419 L642,423 L634,431 L630,439 L629,452 L634,464 L642,472 L652,479 L668,487 L687,494 L713,499 L740,499 L761,495 L784,485 L801,473 L814,459 L829,434 L839,405 L845,373 L848,340 L849,269 L844,147 L838,133 L834,129 Z M1014,289 L1027,287 L1042,287 L1059,290 L1072,295 L1088,306 L1100,319 L1108,333 L1111,342 L1114,358 L1114,375 L1112,388 L1106,404 L1099,415 L1084,430 L1077,435 L1062,442 L1043,446 L1028,446 L1012,443 L995,436 L981,426 L970,414 L962,400 L958,389 L955,370 L956,353 L960,338 L966,325 L972,316 L984,304 L994,297 Z M325,285 L306,292 L292,304 L284,317 L281,325 L279,344 L283,361 L292,374 L300,382 L310,389 L320,393 L340,395 L356,391 L366,386 L381,372 L388,360 L391,350 L391,330 L388,319 L381,308 L372,298 L361,290 L346,285 Z M326,310 L340,309 L347,311 L354,315 L361,322 L365,329 L367,343 L364,353 L353,365 L346,369 L325,369 L315,363 L307,353 L305,347 L306,329 L309,323 L317,315 Z"
      fill="#FFFFFF"
      fill-rule="evenodd"
      clip-rule="evenodd"/>

  <path
      d="M1740,230 L1733,237 L1730,246 L1730,482 L1734,493 L1739,498 L1747,501 L1837,501 L1862,497 L1884,489 L1898,481 L1918,464 L1931,447 L1942,426 L1949,402 L1952,380 L1952,344 L1945,311 L1941,300 L1932,283 L1921,268 L1900,249 L1876,236 L1857,230 L1836,227 L1748,227 Z M1775,266 L1837,266 L1859,272 L1875,281 L1890,296 L1902,318 L1908,340 L1910,363 L1909,382 L1905,402 L1901,413 L1890,433 L1876,447 L1861,456 L1846,461 L1832,463 L1776,463 L1773,460 L1773,268 Z M1560,234 L1538,247 L1519,266 L1516,272 L1515,279 L1516,284 L1522,293 L1530,297 L1540,297 L1546,294 L1566,275 L1581,267 L1600,263 L1614,264 L1626,267 L1634,271 L1645,281 L1652,295 L1653,315 L1650,327 L1638,348 L1520,467 L1516,475 L1517,489 L1523,497 L1532,501 L1685,500 L1695,493 L1698,486 L1698,479 L1695,471 L1685,464 L1583,463 L1582,459 L1664,379 L1684,353 L1693,331 L1696,315 L1695,291 L1690,273 L1683,260 L1669,245 L1652,234 L1637,228 L1620,225 L1594,225 L1573,229 Z M494,179 L477,170 L454,169 L438,176 L428,185 L422,194 L418,207 L418,224 L421,234 L364,288 L364,291 L381,306 L385,313 L387,313 L444,257 L455,260 L477,259 L491,252 L502,241 L510,223 L510,206 L505,192 Z M306,387 L296,380 L285,365 L283,365 L219,428 L123,428 L122,461 L206,462 L208,464 L208,529 L242,530 L243,452 L306,390 Z M332,310 L322,313 L312,321 L307,331 L306,345 L309,354 L318,364 L326,368 L341,369 L351,365 L360,357 L365,346 L365,333 L361,324 L352,315 L343,311 Z"
      fill="#00AEFD"
      fill-rule="evenodd"
      clip-rule="evenodd"/>
</svg>
